<svg id="cookie" xmlns="http://www.w3.org/2000/svg" xmlns:xlink="http://www.w3.org/1999/xlink" viewBox="0 0 960 960"><style>.st0{fill:#b26127}.st1{fill:#fff}.st2{fill:none}.st3{fill:#fbb665}.st4{fill:#d07628}.st5{fill:#ffe0bc}</style><path id="cookie-back-left" class="st0" d="M466.39 210.98s42.42 151.14 49.46 178.35c5.5 21.28-29.12 131.63-39.08 158.95-9.97 27.32-77.58-175.53-77.58-175.53l67.2-161.77z"/><path id="cookie-back-right" class="st0" d="M475.18 551.43l31.97-19.93-26.21-302.97-14.56-17.56c-33.94 143.79-25.03 130.8-33.37 178.14 0 .01 26.97 105.13 42.17 162.32"/><g id="group--paper"><path id="paper" class="st1" d="M244 363.99s227.06-121.02 472 9.82L692.11 563c-135.82-30.49-273.66-30.27-417.94-1.41L244 363.99z"/><path id="paper-text_x5F_1_x5F_" class="st2" d="M319.01 455.77c105.73-24.69 206.52-27.47 321.97 2.11"/><text id="paper-text"><textPath xlink:href="#paper-text_x5F_1_x5F_" text-anchor="middle" startOffset="50%"> <tspan font-family="Futura-Medium" font-size="16.006">grab a slice of pizza</tspan> </textPath></text></g><path id="cookie-front-left" class="st3" d="M466.39 210.98S490.5 410 476.76 548.28c0 0-34.6 128.11-115.32 201.17 0 0-146.58-76.45-190.7-192.27 0 0-24.72-60.05 9.38-120.24 29.3-51.72 158.79-205.9 286.27-225.96z"/><path id="cookie-front-right" class="st3" d="M475.18 551.43s40.33 125.22 136.8 198.47c0 0 110.74-66.34 151.56-145.54 40.82-79.2 35.51-114.48 32.09-127.47-3.42-12.99-33.19-130.36-197.78-220.31 0 0-77.09-53.94-131.46-45.61 0 .01 24.61 248.03 8.79 340.46z"/><path id="shade-inner-left" class="st4" d="M456.59 604.91s14.4-34.55 18.66-51.43l1.51-5.21 3.06-25.05 1.42-19.52.82-40.15.17-11.83v-20.54l-2.6-28.9s-25.92 9.43-22.29 69.98c3.53 58.85 13.89 47.94-.75 132.65z"/><path id="shade-inner-right" class="st4" d="M479.63 402.28s16.25 6.66 20.12 59.34c0 0 .45 15.82-4.23 37.19-4.67 21.37-5.07 12.94-2.56 53.61 0 0 3 19.74-1.36 39.42 0 0-17.39-37.14-16.45-41.73 6.41-31.6 4.48-147.83 4.48-147.83z"/><path id="highlight-right" class="st5" d="M714.5 475.83s3.75 24.52 10.39 16.98c6.63-7.54 6.67-26.68 4.99-40.2-1.68-13.52 5.4-42.72-5.5-63.57-10.88-20.86-45.55-33.05-77.22-64.14-32.53-31.93-78.57-46.9-73.59-38.69 4.98 8.21 51.19 32.55 58.05 54.24 6.85 21.69 25.41 43.81 42.12 65.24 18.57 23.82 26.08 54.68 40.76 70.14z"/><path id="highlight-left" class="st5" d="M404.94 603.37s18.88-22.14 26.15-20.62c7.25 1.51-13.39 21.19-12.87 31.8.52 10.6-6.08 28.51-15.77 42.58-9.67 14.07-31.62 41.52-36.17 34.77-4.56-6.73 19.75-37.78 22.94-46.55 3.2-8.74 6.51-29.37 15.72-41.98z"/><path id="shade-right" class="st4" d="M761.58 608.05s-44.23 32.22-75.61 40.37c-31.38 8.16-54.72 16.24-57.81 30.42-3.1 14.19-20.08 38.61.41 43.63 20.47 5.03 90.18-38.89 133.01-114.42z"/><path id="shade-left" class="st4" d="M201.83 613.69s28.82 20.09 41.4 20.09c12.58 0 43.24 10.22 60.54 29.09 17.29 18.87 49.53 30.66 47.17 47.96-2.36 17.29-53.72-3.71-74.49-19.4-22.21-16.77-63.1-59.23-74.62-77.74z"/></svg>