<?xml version="1.0" encoding="utf-8"?>
<!-- Generator: Adobe Illustrator 20.0.0, SVG Export Plug-In . SVG Version: 6.00 Build 0)  -->
<svg version="1.1" id="cookie" xmlns="http://www.w3.org/2000/svg" xmlns:xlink="http://www.w3.org/1999/xlink" x="0px" y="0px"
	 viewBox="0 0 960 960" style="enable-background:new 0 0 960 960;" xml:space="preserve">
<style type="text/css">
	.st0{fill:#B26127;}
	.st1{fill:#FFFFFF;}
	.st2{fill:none;}
	.st3{fill:#FBB665;}
	.st4{fill:#D07628;}
	.st5{fill:#FFE0BC;}
</style>
<path id="cookie-back-left" class="st0" d="M466.39,210.98c0,0,42.42,151.14,49.46,178.35c5.5,21.28-29.12,131.63-39.08,158.95
	c-9.97,27.32-77.58-175.53-77.58-175.53L466.39,210.98z"/>
<path id="cookie-back-right" class="st0" d="M475.18,551.43l31.97-19.93l-26.21-302.97l-14.56-17.56
	c-33.94,143.79-25.03,130.8-33.37,178.14C433.01,389.12,459.98,494.24,475.18,551.43"/>
<g id="group--paper">
	<path id="paper" class="st1" d="M244,363.99c0,0,227.06-121.02,472,9.82L692.11,563c-135.82-30.49-273.66-30.27-417.94-1.41
		L244,363.99z"/>
	<path id="paper-text_x5F_1_x5F_" class="st2" d="M319.01,455.77c105.73-24.69,206.52-27.47,321.97,2.11"/>
	<text id="paper-text">	<textPath  xlink:href="#paper-text_x5F_1_x5F_" text-anchor="middle" startOffset="50%" >
<tspan  style="font-family:'Futura-Medium'; font-size:16.0055px;">grab a slice of pizza</tspan>	</textPath>
</text>
</g>
<path id="cookie-front-left" class="st3" d="M466.39,210.98c0,0,24.11,199.02,10.37,337.3c0,0-34.6,128.11-115.32,201.17
	c0,0-146.58-76.45-190.7-192.27c0,0-24.72-60.05,9.38-120.24C209.42,385.22,338.91,231.04,466.39,210.98z"/>
<path id="cookie-front-right" class="st3" d="M475.18,551.43c0,0,40.33,125.22,136.8,198.47c0,0,110.74-66.34,151.56-145.54
	c40.82-79.2,35.51-114.48,32.09-127.47c-3.42-12.99-33.19-130.36-197.78-220.31c0,0-77.09-53.94-131.46-45.61
	C466.39,210.98,491,459,475.18,551.43z"/>
<path id="shade-inner-left" class="st4" d="M456.59,604.91c0,0,14.4-34.55,18.66-51.43l1.51-5.21l3.06-25.05l1.42-19.52l0.82-40.15
	l0.17-11.83v-20.54l-2.6-28.9c0,0-25.92,9.43-22.29,69.98C460.87,531.11,471.23,520.2,456.59,604.91z"/>
<path id="shade-inner-right" class="st4" d="M479.63,402.28c0,0,16.25,6.66,20.12,59.34c0,0,0.45,15.82-4.23,37.19
	c-4.67,21.37-5.07,12.94-2.56,53.61c0,0,3,19.74-1.36,39.42c0,0-17.39-37.14-16.45-41.73C481.56,518.51,479.63,402.28,479.63,402.28
	z"/>
<path id="highlight-right" class="st5" d="M714.5,475.83c0,0,3.75,24.52,10.39,16.98c6.63-7.54,6.67-26.68,4.99-40.2
	c-1.68-13.52,5.4-42.72-5.5-63.57c-10.88-20.86-45.55-33.05-77.22-64.14c-32.53-31.93-78.57-46.9-73.59-38.69
	c4.98,8.21,51.19,32.55,58.05,54.24c6.85,21.69,25.41,43.81,42.12,65.24C692.31,429.51,699.82,460.37,714.5,475.83z"/>
<path id="highlight-left" class="st5" d="M404.94,603.37c0,0,18.88-22.14,26.15-20.62c7.25,1.51-13.39,21.19-12.87,31.8
	c0.52,10.6-6.08,28.51-15.77,42.58c-9.67,14.07-31.62,41.52-36.17,34.77c-4.56-6.73,19.75-37.78,22.94-46.55
	C392.42,636.61,395.73,615.98,404.94,603.37z"/>
<path id="shade-right" class="st4" d="M761.58,608.05c0,0-44.23,32.22-75.61,40.37c-31.38,8.16-54.72,16.24-57.81,30.42
	c-3.1,14.19-20.08,38.61,0.41,43.63C649.04,727.5,718.75,683.58,761.58,608.05z"/>
<path id="shade-left" class="st4" d="M201.83,613.69c0,0,28.82,20.09,41.4,20.09c12.58,0,43.24,10.22,60.54,29.09
	c17.29,18.87,49.53,30.66,47.17,47.96c-2.36,17.29-53.72-3.71-74.49-19.4C254.24,674.66,213.35,632.2,201.83,613.69z"/>
</svg>
